REM DIRINDEX 1\2,1\3
REM DIRNAME cjc039,folder01,folder02
TITLE ""
FILE "3401-3420.mp3" MP3
  TRACK 01 AUDIO
    TITLE "0:"
    INDEX 01 00:00:00
  TRACK 02 AUDIO
    TITLE "2:cjc039_5801"
    INDEX 01 00:00:25
  TRACK 03 AUDIO
    TITLE "0:"
    INDEX 01 00:01:54
  TRACK 04 AUDIO
    TITLE "3:cjc039_5802"
    INDEX 01 00:02:30
  TRACK 05 AUDIO
    TITLE "0:"
    INDEX 01 00:05:59
  TRACK 06 AUDIO
    TITLE "2:cjc039_5803"
    INDEX 01 00:07:37
  TRACK 07 AUDIO
    TITLE "0:"
    INDEX 01 00:08:62
  TRACK 08 AUDIO
    TITLE "3:cjc039_5804"
    INDEX 01 00:09:38
  TRACK 09 AUDIO
    TITLE "0:"
    INDEX 01 00:12:60
  TRACK 10 AUDIO
    TITLE "2:cjc039_5805"
    INDEX 01 00:14:37
  TRACK 11 AUDIO
    TITLE "0:"
    INDEX 01 00:15:56
  TRACK 12 AUDIO
    TITLE "3:cjc039_5806"
    INDEX 01 00:16:36
  TRACK 13 AUDIO
    TITLE "0:"
    INDEX 01 00:19:54
  TRACK 14 AUDIO
    TITLE "2:cjc039_5807"
    INDEX 01 00:21:29
  TRACK 15 AUDIO
    TITLE "0:"
    INDEX 01 00:22:56
  TRACK 16 AUDIO
    TITLE "3:cjc039_5808"
    INDEX 01 00:23:34
  TRACK 17 AUDIO
    TITLE "0:"
    INDEX 01 00:27:36
  TRACK 18 AUDIO
    TITLE "2:cjc039_5809"
    INDEX 01 00:29:13
  TRACK 19 AUDIO
    TITLE "0:"
    INDEX 01 00:30:20
  TRACK 20 AUDIO
    TITLE "3:cjc039_5810"
    INDEX 01 00:31:02
  TRACK 21 AUDIO
    TITLE "0:"
    INDEX 01 00:34:30
  TRACK 22 AUDIO
    TITLE "2:cjc039_5811"
    INDEX 01 00:36:05
  TRACK 23 AUDIO
    TITLE "0:"
    INDEX 01 00:37:38
  TRACK 24 AUDIO
    TITLE "3:cjc039_5812"
    INDEX 01 00:38:12
  TRACK 25 AUDIO
    TITLE "0:"
    INDEX 01 00:42:08
  TRACK 26 AUDIO
    TITLE "2:cjc039_5813"
    INDEX 01 00:43:58
  TRACK 27 AUDIO
    TITLE "0:"
    INDEX 01 00:44:65
  TRACK 28 AUDIO
    TITLE "3:cjc039_5814"
    INDEX 01 00:45:45
  TRACK 29 AUDIO
    TITLE "0:"
    INDEX 01 00:49:51
  TRACK 30 AUDIO
    TITLE "2:cjc039_5815"
    INDEX 01 00:51:24
  TRACK 31 AUDIO
    TITLE "0:"
    INDEX 01 00:52:71
  TRACK 32 AUDIO
    TITLE "3:cjc039_5816"
    INDEX 01 00:53:43
  TRACK 33 AUDIO
    TITLE "0:"
    INDEX 01 00:56:69
  TRACK 34 AUDIO
    TITLE "2:cjc039_5817"
    INDEX 01 00:58:44
  TRACK 35 AUDIO
    TITLE "0:"
    INDEX 01 00:59:65
  TRACK 36 AUDIO
    TITLE "3:cjc039_5818"
    INDEX 01 01:00:45
  TRACK 37 AUDIO
    TITLE "0:"
    INDEX 01 01:04:00
  TRACK 38 AUDIO
    TITLE "2:cjc039_5819"
    INDEX 01 01:05:44
  TRACK 39 AUDIO
    TITLE "0:"
    INDEX 01 01:07:12
  TRACK 40 AUDIO
    TITLE "3:cjc039_5820"
    INDEX 01 01:07:61
  TRACK 41 AUDIO
    TITLE "0:"
    INDEX 01 01:11:52
  TRACK 42 AUDIO
    TITLE "2:cjc039_5821"
    INDEX 01 01:13:32
  TRACK 43 AUDIO
    TITLE "0:"
    INDEX 01 01:14:41
  TRACK 44 AUDIO
    TITLE "3:cjc039_5822"
    INDEX 01 01:15:17
  TRACK 45 AUDIO
    TITLE "0:"
    INDEX 01 01:18:11
  TRACK 46 AUDIO
    TITLE "2:cjc039_5823"
    INDEX 01 01:19:60
  TRACK 47 AUDIO
    TITLE "0:"
    INDEX 01 01:21:29
  TRACK 48 AUDIO
    TITLE "3:cjc039_5824"
    INDEX 01 01:22:03
  TRACK 49 AUDIO
    TITLE "0:"
    INDEX 01 01:26:23
  TRACK 50 AUDIO
    TITLE "2:cjc039_5825"
    INDEX 01 01:28:00
  TRACK 51 AUDIO
    TITLE "0:"
    INDEX 01 01:29:17
  TRACK 52 AUDIO
    TITLE "3:cjc039_5826"
    INDEX 01 01:29:64
  TRACK 53 AUDIO
    TITLE "0:"
    INDEX 01 01:32:35
  TRACK 54 AUDIO
    TITLE "2:cjc039_5827"
    INDEX 01 01:34:16
  TRACK 55 AUDIO
    TITLE "0:"
    INDEX 01 01:35:39
  TRACK 56 AUDIO
    TITLE "3:cjc039_5828"
    INDEX 01 01:36:15
  TRACK 57 AUDIO
    TITLE "0:"
    INDEX 01 01:39:47
  TRACK 58 AUDIO
    TITLE "2:cjc039_5829"
    INDEX 01 01:41:22
  TRACK 59 AUDIO
    TITLE "0:"
    INDEX 01 01:42:31
  TRACK 60 AUDIO
    TITLE "3:cjc039_5830"
    INDEX 01 01:43:07
  TRACK 61 AUDIO
    TITLE "0:"
    INDEX 01 01:46:25
  TRACK 62 AUDIO
    TITLE "2:cjc039_5831"
    INDEX 01 01:48:03
  TRACK 63 AUDIO
    TITLE "0:"
    INDEX 01 01:49:32
  TRACK 64 AUDIO
    TITLE "3:cjc039_5832"
    INDEX 01 01:50:07
  TRACK 65 AUDIO
    TITLE "0:"
    INDEX 01 01:53:47
  TRACK 66 AUDIO
    TITLE "2:cjc039_5833"
    INDEX 01 01:55:24
  TRACK 67 AUDIO
    TITLE "0:"
    INDEX 01 01:56:32
  TRACK 68 AUDIO
    TITLE "3:cjc039_5834"
    INDEX 01 01:57:08
  TRACK 69 AUDIO
    TITLE "0:"
    INDEX 01 01:59:44
  TRACK 70 AUDIO
    TITLE "2:cjc039_5835"
    INDEX 01 02:01:21
  TRACK 71 AUDIO
    TITLE "0:"
    INDEX 01 02:02:38
  TRACK 72 AUDIO
    TITLE "3:cjc039_5836"
    INDEX 01 02:03:16
  TRACK 73 AUDIO
    TITLE "0:"
    INDEX 01 02:06:18
  TRACK 74 AUDIO
    TITLE "2:cjc039_5837"
    INDEX 01 02:07:71
  TRACK 75 AUDIO
    TITLE "0:"
    INDEX 01 02:08:68
  TRACK 76 AUDIO
    TITLE "3:cjc039_5838"
    INDEX 01 02:09:42
  TRACK 77 AUDIO
    TITLE "0:"
    INDEX 01 02:12:74
  TRACK 78 AUDIO
    TITLE "2:cjc039_5839"
    INDEX 01 02:14:49
  TRACK 79 AUDIO
    TITLE "0:"
    INDEX 01 02:16:28
  TRACK 80 AUDIO
    TITLE "3:cjc039_5840"
    INDEX 01 02:17:06
  TRACK 81 AUDIO
    TITLE "0:"
    INDEX 01 02:20:61
